<mxfile host="app.diagrams.net" modified="2022-03-26T13:23:38.037Z" agent="5.0 (Windows NT 10.0; WOW64) AppleWebKit/537.36 (KHTML, like Gecko) Chrome/90.0.4430.93 Safari/537.36" etag="od-zmn_sW3SSXfTG_2cE" version="17.2.4" type="github">
  <diagram name="Page-1" id="74e2e168-ea6b-b213-b513-2b3c1d86103e">
    <mxGraphModel dx="1038" dy="588" grid="1" gridSize="10" guides="1" tooltips="1" connect="1" arrows="1" fold="1" page="1" pageScale="1" pageWidth="1100" pageHeight="850" background="none" math="0" shadow="0">
      <root>
        <mxCell id="0" />
        <mxCell id="1" parent="0" />
        <mxCell id="77e6c97f196da883-1" value="&lt;font style=&quot;font-size: 14px&quot;&gt;数据隔离&lt;/font&gt;" style="swimlane;html=1;childLayout=stackLayout;startSize=20;rounded=0;shadow=0;labelBackgroundColor=none;strokeWidth=1;fontFamily=Verdana;fontSize=8;align=center;" parent="1" vertex="1">
          <mxGeometry x="70" y="40" width="960" height="1280" as="geometry" />
        </mxCell>
        <mxCell id="77e6c97f196da883-2" value="隔离策略" style="swimlane;html=1;startSize=20;" parent="77e6c97f196da883-1" vertex="1">
          <mxGeometry y="20" width="160" height="1260" as="geometry" />
        </mxCell>
        <mxCell id="JoLwjRt_tMM7KPRL7KoM-6" style="edgeStyle=orthogonalEdgeStyle;rounded=0;orthogonalLoop=1;jettySize=auto;html=1;exitX=0.5;exitY=1;exitDx=0;exitDy=0;entryX=0.5;entryY=0;entryDx=0;entryDy=0;fontSize=14;" edge="1" parent="77e6c97f196da883-2" source="JoLwjRt_tMM7KPRL7KoM-4" target="JoLwjRt_tMM7KPRL7KoM-5">
          <mxGeometry relative="1" as="geometry" />
        </mxCell>
        <mxCell id="JoLwjRt_tMM7KPRL7KoM-4" value="策略A" style="ellipse;whiteSpace=wrap;html=1;fontSize=14;" vertex="1" parent="77e6c97f196da883-2">
          <mxGeometry x="20" y="30" width="110" height="40" as="geometry" />
        </mxCell>
        <mxCell id="JoLwjRt_tMM7KPRL7KoM-5" value="使用注解@PostContruct，在bean实例创建后，初始化之前，将自己注册到处理器&lt;br&gt;" style="rounded=0;whiteSpace=wrap;html=1;fontSize=14;" vertex="1" parent="77e6c97f196da883-2">
          <mxGeometry x="15" y="100" width="115" height="120" as="geometry" />
        </mxCell>
        <mxCell id="77e6c97f196da883-3" value="sql处理器" style="swimlane;html=1;startSize=20;" parent="77e6c97f196da883-1" vertex="1">
          <mxGeometry x="160" y="20" width="160" height="1260" as="geometry" />
        </mxCell>
        <mxCell id="JoLwjRt_tMM7KPRL7KoM-8" value="注册，实际上就是装进它的策略容器里" style="rounded=0;whiteSpace=wrap;html=1;fontSize=14;" vertex="1" parent="77e6c97f196da883-3">
          <mxGeometry x="20" y="200" width="120" height="60" as="geometry" />
        </mxCell>
        <mxCell id="JoLwjRt_tMM7KPRL7KoM-26" value="执行sql处理：拿到隔离策略名称，从容器中获取到隔离策略。根据隔离策略，进行sql处理" style="rounded=0;whiteSpace=wrap;html=1;fontSize=14;" vertex="1" parent="77e6c97f196da883-3">
          <mxGeometry x="20" y="990" width="130" height="90" as="geometry" />
        </mxCell>
        <mxCell id="77e6c97f196da883-4" value="拦截器上下文" style="swimlane;html=1;startSize=20;" parent="77e6c97f196da883-1" vertex="1">
          <mxGeometry x="320" y="20" width="160" height="1260" as="geometry" />
        </mxCell>
        <mxCell id="JoLwjRt_tMM7KPRL7KoM-14" value="设置上下文" style="rounded=0;whiteSpace=wrap;html=1;fontSize=14;" vertex="1" parent="77e6c97f196da883-4">
          <mxGeometry x="30" y="550" width="120" height="60" as="geometry" />
        </mxCell>
        <mxCell id="JoLwjRt_tMM7KPRL7KoM-20" value="获取上下文" style="rounded=0;whiteSpace=wrap;html=1;fontSize=14;" vertex="1" parent="77e6c97f196da883-4">
          <mxGeometry x="20" y="710" width="120" height="60" as="geometry" />
        </mxCell>
        <mxCell id="77e6c97f196da883-5" value="拦截器" style="swimlane;html=1;startSize=20;" parent="77e6c97f196da883-1" vertex="1">
          <mxGeometry x="480" y="20" width="160" height="1260" as="geometry" />
        </mxCell>
        <mxCell id="JoLwjRt_tMM7KPRL7KoM-19" value="执行sql时拦截" style="rounded=0;whiteSpace=wrap;html=1;fontSize=14;" vertex="1" parent="77e6c97f196da883-5">
          <mxGeometry x="30" y="610" width="120" height="60" as="geometry" />
        </mxCell>
        <mxCell id="JoLwjRt_tMM7KPRL7KoM-22" value="分析sql，从拿到的上下文中，找到需要隔离的表，以及每张表对应的隔离策略。判断表名是否是指定要隔离的表" style="rounded=0;whiteSpace=wrap;html=1;fontSize=14;" vertex="1" parent="77e6c97f196da883-5">
          <mxGeometry x="20" y="810" width="130" height="110" as="geometry" />
        </mxCell>
        <mxCell id="77e6c97f196da883-6" value="方法（注解）" style="swimlane;html=1;startSize=20;" parent="77e6c97f196da883-1" vertex="1">
          <mxGeometry x="640" y="20" width="160" height="1260" as="geometry" />
        </mxCell>
        <mxCell id="JoLwjRt_tMM7KPRL7KoM-11" value="方法使用了@Isolate注解" style="rounded=0;whiteSpace=wrap;html=1;fontSize=14;" vertex="1" parent="77e6c97f196da883-6">
          <mxGeometry x="30" y="270" width="120" height="60" as="geometry" />
        </mxCell>
        <mxCell id="77e6c97f196da883-7" value="AOP" style="swimlane;html=1;startSize=20;" parent="77e6c97f196da883-1" vertex="1">
          <mxGeometry x="800" y="20" width="160" height="1260" as="geometry" />
        </mxCell>
        <mxCell id="JoLwjRt_tMM7KPRL7KoM-18" value="" style="edgeStyle=orthogonalEdgeStyle;rounded=0;orthogonalLoop=1;jettySize=auto;html=1;fontSize=14;" edge="1" parent="77e6c97f196da883-7" source="JoLwjRt_tMM7KPRL7KoM-12" target="JoLwjRt_tMM7KPRL7KoM-16">
          <mxGeometry relative="1" as="geometry" />
        </mxCell>
        <mxCell id="JoLwjRt_tMM7KPRL7KoM-12" value="环绕通知" style="rounded=0;whiteSpace=wrap;html=1;fontSize=14;" vertex="1" parent="77e6c97f196da883-7">
          <mxGeometry x="30" y="330" width="120" height="60" as="geometry" />
        </mxCell>
        <mxCell id="JoLwjRt_tMM7KPRL7KoM-16" value="方法执行前，设置上下文" style="rounded=0;whiteSpace=wrap;html=1;fontSize=14;" vertex="1" parent="77e6c97f196da883-7">
          <mxGeometry x="30" y="450" width="120" height="60" as="geometry" />
        </mxCell>
        <mxCell id="JoLwjRt_tMM7KPRL7KoM-13" style="edgeStyle=orthogonalEdgeStyle;rounded=0;orthogonalLoop=1;jettySize=auto;html=1;exitX=1;exitY=0.5;exitDx=0;exitDy=0;entryX=0;entryY=0.5;entryDx=0;entryDy=0;fontSize=14;" edge="1" parent="77e6c97f196da883-1" source="JoLwjRt_tMM7KPRL7KoM-11" target="JoLwjRt_tMM7KPRL7KoM-12">
          <mxGeometry relative="1" as="geometry" />
        </mxCell>
        <mxCell id="JoLwjRt_tMM7KPRL7KoM-17" style="edgeStyle=orthogonalEdgeStyle;rounded=0;orthogonalLoop=1;jettySize=auto;html=1;exitX=0;exitY=0.5;exitDx=0;exitDy=0;fontSize=14;" edge="1" parent="77e6c97f196da883-1" source="JoLwjRt_tMM7KPRL7KoM-16" target="JoLwjRt_tMM7KPRL7KoM-14">
          <mxGeometry relative="1" as="geometry" />
        </mxCell>
        <mxCell id="JoLwjRt_tMM7KPRL7KoM-21" style="edgeStyle=orthogonalEdgeStyle;rounded=0;orthogonalLoop=1;jettySize=auto;html=1;exitX=0.5;exitY=1;exitDx=0;exitDy=0;entryX=0.5;entryY=0;entryDx=0;entryDy=0;fontSize=14;" edge="1" parent="77e6c97f196da883-1" source="JoLwjRt_tMM7KPRL7KoM-19" target="JoLwjRt_tMM7KPRL7KoM-20">
          <mxGeometry relative="1" as="geometry" />
        </mxCell>
        <mxCell id="JoLwjRt_tMM7KPRL7KoM-24" style="edgeStyle=orthogonalEdgeStyle;rounded=0;orthogonalLoop=1;jettySize=auto;html=1;exitX=1;exitY=0.5;exitDx=0;exitDy=0;entryX=0;entryY=0.5;entryDx=0;entryDy=0;fontSize=14;" edge="1" parent="77e6c97f196da883-1" source="JoLwjRt_tMM7KPRL7KoM-5" target="JoLwjRt_tMM7KPRL7KoM-8">
          <mxGeometry relative="1" as="geometry" />
        </mxCell>
        <mxCell id="JoLwjRt_tMM7KPRL7KoM-25" style="edgeStyle=orthogonalEdgeStyle;rounded=0;orthogonalLoop=1;jettySize=auto;html=1;exitX=0.5;exitY=1;exitDx=0;exitDy=0;entryX=0.603;entryY=-0.02;entryDx=0;entryDy=0;entryPerimeter=0;fontSize=14;" edge="1" parent="77e6c97f196da883-1" source="JoLwjRt_tMM7KPRL7KoM-20" target="JoLwjRt_tMM7KPRL7KoM-22">
          <mxGeometry relative="1" as="geometry" />
        </mxCell>
        <mxCell id="JoLwjRt_tMM7KPRL7KoM-27" style="edgeStyle=orthogonalEdgeStyle;rounded=0;orthogonalLoop=1;jettySize=auto;html=1;exitX=0.5;exitY=1;exitDx=0;exitDy=0;entryX=1;entryY=0.5;entryDx=0;entryDy=0;fontSize=14;" edge="1" parent="77e6c97f196da883-1" source="JoLwjRt_tMM7KPRL7KoM-22" target="JoLwjRt_tMM7KPRL7KoM-26">
          <mxGeometry relative="1" as="geometry" />
        </mxCell>
      </root>
    </mxGraphModel>
  </diagram>
</mxfile>
